<?xml version="1.0" standalone="no"?>
<!DOCTYPE svg PUBLIC "-//W3C//DTD SVG 20010904//EN"
 "http://www.w3.org/TR/2001/REC-SVG-20010904/DTD/svg10.dtd">
<svg version="1.0" xmlns="http://www.w3.org/2000/svg"
 width="500.000000pt" height="500.000000pt" viewBox="0 0 500.000000 500.000000"
 preserveAspectRatio="xMidYMid meet">

<g transform="translate(0.000000,500.000000) scale(0.100000,-0.100000)"
fill="#000000" stroke="none">
<path d="M1201 3836 c-13 -15 -32 66 454 -1901 163 -660 302 -1206 310 -1214
8 -8 18 -10 28 -4 16 8 2191 2099 2272 2182 68 71 260 7 -1655 557 -316 91
-588 169 -605 175 -71 22 -771 219 -781 219 -6 0 -17 -6 -23 -14z m402 -164
c170 -48 307 -92 306 -97 -1 -11 -461 -455 -470 -455 -3 0 -38 135 -78 301
-40 165 -76 309 -78 320 -3 10 -1 19 3 19 5 0 148 -40 317 -88z m765 -219
c166 -48 302 -90 302 -93 0 -9 -457 -443 -466 -442 -13 1 -163 622 -150 622 6
0 147 -39 314 -87z m-316 -245 c42 -172 75 -314 73 -316 -4 -4 -608 169 -617
177 -8 7 447 451 461 451 4 0 41 -141 83 -312z m1076 26 l303 -88 -43 -42
c-175 -172 -432 -414 -435 -410 -2 2 -39 146 -82 320 -63 254 -75 315 -62 312
9 -3 152 -44 319 -92z m-248 -555 c0 -5 -620 168 -627 175 -2 1 104 105 235
230 l237 228 77 -313 c43 -173 77 -317 78 -320z m991 341 c172 -49 314 -92
316 -94 2 -2 -104 -108 -236 -235 l-240 -232 -10 38 c-6 21 -40 160 -76 308
-36 149 -68 278 -71 288 -3 9 -3 17 0 17 3 0 145 -40 317 -90z m-311 -250 c47
-186 73 -310 66 -310 -27 0 -616 174 -614 181 5 14 462 448 467 444 2 -3 39
-144 81 -315z m-1777 144 c166 -48 307 -89 314 -93 7 -3 -86 -99 -230 -238
l-242 -232 -77 312 c-77 313 -82 337 -73 337 3 0 141 -39 308 -86z m770 -221
c169 -48 306 -90 305 -93 -4 -10 -462 -450 -468 -450 -3 0 -38 136 -79 303
-40 166 -76 308 -78 315 -3 6 -1 12 3 12 5 0 147 -39 317 -87z m-310 -258 c42
-170 74 -312 71 -314 -4 -5 -615 170 -627 179 -4 3 99 109 229 234 131 125
240 223 244 219 4 -4 42 -147 83 -318z m1124 22 c139 -39 253 -75 253 -78 0
-10 -471 -462 -476 -457 -2 3 -38 142 -79 309 -42 167 -78 312 -81 321 -5 15
1 15 63 -3 37 -10 182 -52 320 -92z m-373 -233 c42 -174 75 -318 73 -320 -3
-4 -628 174 -634 180 -5 4 466 456 475 456 4 0 43 -142 86 -316z m-1034 -79
c146 -42 279 -81 297 -86 l32 -10 -157 -152 c-86 -84 -194 -187 -238 -230
l-81 -78 -77 313 c-42 172 -76 317 -76 321 0 5 8 6 18 3 9 -3 136 -39 282 -81z
m767 -221 c164 -47 304 -89 311 -93 8 -5 -64 -81 -219 -229 -127 -122 -234
-222 -238 -222 -3 0 -39 136 -80 303 -41 166 -76 308 -78 315 -3 6 -3 12 1 12
3 0 139 -39 303 -86z m-297 -247 c40 -164 70 -300 67 -303 -7 -7 -617 167
-617 176 0 3 104 107 232 229 162 157 233 219 238 210 4 -8 40 -148 80 -312z
m-252 -292 c172 -49 311 -93 310 -97 -2 -5 -111 -112 -243 -238 l-240 -230
-76 302 c-41 167 -79 316 -83 332 -5 21 -4 27 6 24 7 -3 154 -45 326 -93z"/>
</g>
</svg>
