<?xml version="1.0" standalone="no"?><!DOCTYPE svg PUBLIC "-//W3C//DTD SVG 1.1//EN" "http://www.w3.org/Graphics/SVG/1.1/DTD/svg11.dtd"><svg t="1714630355191" class="icon" viewBox="0 0 1024 1024" version="1.1" xmlns="http://www.w3.org/2000/svg" p-id="18808" xmlns:xlink="http://www.w3.org/1999/xlink" width="200" height="200"><path d="M64 147.2h326.4v57.6H64v-57.6z m0 217.6h243.2v57.6H64v-57.6z m0 441.6h326.4v57.6H64v-57.6z m0-224h243.2v57.6H64v-57.6zM588.8 940.8c-19.2 0-44.8-6.4-64-19.2-25.6-19.2-44.8-44.8-51.2-76.8-19.2-108.8-25.6-224-25.6-339.2s12.8-230.4 32-345.6c0-32 19.2-57.6 44.8-76.8 25.6-19.2 57.6-25.6 89.6-12.8 204.8 44.8 345.6 224 345.6 435.2 0 204.8-140.8 384-345.6 435.2h-25.6zM588.8 128c-12.8 0-19.2 6.4-32 6.4-12.8 12.8-19.2 25.6-25.6 38.4-12.8 108.8-25.6 217.6-25.6 332.8s12.8 224 25.6 332.8c0 19.2 12.8 25.6 25.6 38.4 12.8 6.4 25.6 12.8 44.8 6.4 172.8-44.8 294.4-198.4 294.4-377.6 0-179.2-121.6-332.8-294.4-377.6h-12.8z" fill="#4B4B60" p-id="18809"></path></svg>