<?xml version="1.0" standalone="no"?><!DOCTYPE svg PUBLIC "-//W3C//DTD SVG 1.1//EN" "http://www.w3.org/Graphics/SVG/1.1/DTD/svg11.dtd"><svg t="1714614935937" class="icon" viewBox="0 0 1024 1024" version="1.1" xmlns="http://www.w3.org/2000/svg" p-id="5367" xmlns:xlink="http://www.w3.org/1999/xlink" width="200" height="200"><path d="M938.56 511.36a238.72 238.72 0 0 1-238.72 238.72H659.2c-35.84 0-70.08-14.72-95.04-40.32-2.24-2.24-4.16-4.48-6.4-7.04l-6.08-7.36a130.176 130.176 0 0 0-65.28-42.24 131.456 131.456 0 0 0-149.12 58.88L304 767.68c-9.28 15.68-22.4 28.16-38.08 37.12a104.48 104.48 0 0 1-113.28-7.04c-17.6-12.8-31.04-31.68-37.76-53.44-19.2-64-28.8-130.24-28.8-196.8v-35.84c0-117.76 47.68-224.32 124.8-301.44s183.68-124.8 301.44-124.8c104.96 0 201.28 38.08 275.52 101.12l-47.36 73.6-74.24 114.88-44.48 68.48c-51.2 0.64-92.8 42.24-92.8 93.76 0 13.44 2.88 26.24 8 37.76 12.48 28.16 38.4 49.28 69.76 54.4 5.12 0.96 10.56 1.6 16 1.6 51.84 0 93.76-41.92 93.76-93.76 0-25.28-9.92-48.32-26.24-64.96l133.44-251.2c71.36 75.84 114.88 178.24 114.88 290.24z" fill="#E2CCA8" p-id="5368"></path><path d="M564.16 709.76l-11.52 21.76c-10.24 19.2-31.36 28.48-51.52 24.96-3.52-3.52-7.36-6.08-11.52-8.64-5.44-3.2-10.88-5.44-16.32-7.04-14.72-16-17.28-40.64-4.8-59.52l18.24-28.16a133.12 133.12 0 0 1 65.28 42.24l6.08 7.36 6.08 7.04zM880.32 111.04c0 3.2-0.96 6.4-2.24 9.28l-53.76 100.8-133.44 251.2-83.52 157.12c-31.36-5.44-57.6-26.24-69.76-54.4l84.8-131.52 44.48-68.48 74.24-114.88 47.36-73.6 55.68-86.08c5.76-8.64 16.64-11.52 25.6-7.04 6.4 3.2 10.56 10.24 10.56 17.6z" fill="#AA571B" p-id="5369"></path><path d="M517.44 852.8c-21.12 36.8-102.08 108.16-138.88 87.04-36.8-21.12-15.04-127.04 6.08-163.84a76.832 76.832 0 0 1 104.64-28.16c4.16 2.24 8 5.12 11.52 8.64 27.84 23.04 35.52 63.68 16.64 96.32z" fill="#F2C05C" p-id="5370"></path><path d="M231.04 639.36m-59.52 0a59.52 59.52 0 1 0 119.04 0 59.52 59.52 0 1 0-119.04 0Z" fill="#61A838" p-id="5371"></path><path d="M265.28 417.6m-76.8 0a76.8 76.8 0 1 0 153.6 0 76.8 76.8 0 1 0-153.6 0Z" fill="#FF737D" p-id="5372"></path><path d="M435.52 247.36m-76.8 0a76.8 76.8 0 1 0 153.6 0 76.8 76.8 0 1 0-153.6 0Z" fill="#FAAD14" p-id="5373"></path><path d="M740.48 259.84l-74.24 114.88a76.768 76.768 0 0 1-68.8-76.48c0-42.56 34.24-76.8 76.8-76.8 28.16 0.32 53.12 15.68 66.24 38.4z" fill="#40A9FF" p-id="5374"></path></svg>