<?xml version="1.0" standalone="no"?><!DOCTYPE svg PUBLIC "-//W3C//DTD SVG 1.1//EN" "http://www.w3.org/Graphics/SVG/1.1/DTD/svg11.dtd"><svg t="1714980163514" class="icon" viewBox="0 0 1024 1024" version="1.1" xmlns="http://www.w3.org/2000/svg" p-id="5977" xmlns:xlink="http://www.w3.org/1999/xlink" width="200" height="200"><path d="M1024 512c0 282.8-229.2 512-512 512S0 794.8 0 512 229.2 0 512 0s512 229.2 512 512" fill="#DCDCDC" p-id="5978"></path><path d="M576 512c0 35.36-28.64 64-64 64s-64-28.64-64-64 28.64-64 64-64 64 28.64 64 64" fill="#2A2C2C" p-id="5979"></path><path d="M512 580c-37.52 0-68-30.48-68-68s30.48-68 68-68 68 30.48 68 68-30.48 68-68 68z m0-128c-33.12 0-60 26.88-60 60s26.88 60 60 60 60-26.88 60-60-26.88-60-60-60zM649.76 328.48h-268c-9.68 0-18.48-5.84-22.16-14.8-3.68-8.96-1.68-19.28 5.2-26.16l123.76-123.76a38.48 38.48 0 0 1 54.32 0l123.76 123.76c6.88 6.88 8.96 17.2 5.2 26.16a23.864 23.864 0 0 1-22.08 14.8z m-210.08-48h152.08l-76-76-76.08 76zM719.52 673.76c-3.12 0-6.24-0.56-9.2-1.84a23.976 23.976 0 0 1-14.8-22.16v-268c0-9.68 5.84-18.48 14.8-22.16 8.96-3.76 19.28-1.68 26.16 5.2l123.76 123.76a38.48 38.48 0 0 1 0 54.32L736.48 666.72c-4.56 4.56-10.72 7.04-16.96 7.04z m24-234.08v152.08l76-76-76-76.08zM508.24 871.44c-9.84 0-19.68-3.76-27.2-11.2L357.28 736.48a23.904 23.904 0 0 1-5.2-26.16 23.976 23.976 0 0 1 22.16-14.8h267.92c9.68 0 18.48 5.84 22.16 14.8 3.68 8.96 1.68 19.28-5.2 26.16l-123.76 123.76c-7.44 7.52-17.28 11.2-27.12 11.2z m-76-127.92l76 76 76-76h-152z" fill="#2A2C2C" p-id="5980"></path><path d="M304.48 666.24c-6.24 0-12.4-2.4-16.96-7.04L163.76 535.44a38.48 38.48 0 0 1 0-54.32l123.76-123.76c6.88-6.88 17.2-8.96 26.16-5.2 8.96 3.68 14.8 12.48 14.8 22.16v267.92a23.976 23.976 0 0 1-24 24z m-100-158l76 76v-152l-76 76z" fill="#2A2C2C" p-id="5981"></path></svg>