<?xml version="1.0" standalone="no"?><!DOCTYPE svg PUBLIC "-//W3C//DTD SVG 1.1//EN" "http://www.w3.org/Graphics/SVG/1.1/DTD/svg11.dtd"><svg t="1703850739094" class="icon" viewBox="0 0 1024 1024" version="1.1" xmlns="http://www.w3.org/2000/svg" p-id="3461" xmlns:xlink="http://www.w3.org/1999/xlink" width="200" height="200"><path d="M493 407c-2 0.6-4 1.3-6.1 1.8-18.1 4.6-31 20.2-32.1 38.8 0 0.5-0.1 1-0.1 1.5 1.1 12-1 22.8-8.7 33-4 5.4-4.8 13.2-7.1 19.9v-95H493zM449 508.9c0-27.1 21.8-48.9 48.8-48.9 26.7 0 48.6 21.7 48.8 48.5 0.2 27.1-22.4 49.4-49.8 49.2-26.2-0.1-47.8-22.2-47.8-48.8z m54.8-17.2v-2.3c-2-1.4-4.3-4.2-6.1-4-1.9 0.3-4.5 3.2-4.8 5.3-0.2 1.4 2.9 4.6 4.7 4.7 2 0.1 4.2-2.3 6.2-3.7z m-7.3 42.2c0.8 0 1.6 0 2.4 0.1 1.4-2 3.9-4.1 3.8-6-0.1-1.7-2.8-4.3-4.8-4.8-3.2-0.7-5.6 1.7-5.1 4.9 0.3 2.1 2.4 3.9 3.7 5.8z m-0.1-18.8c0.8 0 1.6 0 2.4 0.1 1.4-2 4-4.1 3.9-6-0.1-1.8-2.8-4.5-4.7-5-3.2-0.8-5.5 1.9-5.2 5 0.2 2.1 2.3 4 3.6 5.9z" fill="#FFFFFF" p-id="3462"></path><path d="M447.7 79.9c87.1 0 174.3 2 261.3-0.7 59.6-1.9 109 42.3 111.3 102.1 2.9 74.5 1.6 149.1 2 223.6 0.1 15.5 1.4 31.3-1.3 46.4-1.3 7.5-10.4 13.7-16 20.4-6.5-6.6-14.8-12.3-19-20.2-3.1-5.8-1.3-14.4-1.3-21.8-0.1-78.3 0.1-156.5-0.1-234.8-0.1-51.3-31.6-83.1-82.7-83.1-169.1-0.2-338.1-0.2-507.2 0-51.6 0-83.8 32.7-83.9 84.9-0.1 167.6 1.1 335.2-0.9 502.7-0.5 44 36.3 88.8 87.1 87.6 118.8-2.7 237.7-0.9 356.6-0.8 8.1 0 17.1-1.2 24 1.9 6.8 3 16 11.1 15.7 16.5-0.3 6.1-9.4 12.9-16 17-4.5 2.8-11.5 1.9-17.3 1.9-119.6 0.1-239.2 0.4-358.8-0.1-48.8-0.2-90.2-16.3-112.9-63.2-5.6-11.5-9-25.3-9.1-38.1-0.6-182.3-0.5-364.7-0.3-547 0-51.5 44.6-95.2 96.5-95.2 90.7-0.1 181.5 0 272.3 0z" p-id="3463"></path><path d="M951.2 739.6c0 17 0.5 34-0.1 50.9-0.9 23.9-8.6 32-32.2 32.8-22.9 0.8-45.8 0.6-68.6 0.2-19.5-0.3-28.4 8.5-28 28 0.4 24.4 0.3 48.7-0.1 73.1-0.2 13.3-3.9 28.3-19.2 26.5-7-0.8-16.4-16.4-17.4-26.1-2.5-24.9-1.2-50.1-0.8-75.2 0.3-18.4-7.3-27.1-26.5-26.4-23.6 0.8-47.2 0-70.9 0.1-19.9 0-30.6-10.2-31-29.6-0.6-36.1-0.5-72.3-0.2-108.5 0.2-22.4 15.5-28.5 34.2-29 22.9-0.6 45.8-0.7 68.6 0 17.8 0.5 25.8-7.4 25.7-25-0.2-25.1-0.6-50.2 0.2-75.3 0.4-12.4 1.5-27.4 18.9-27.2 17.5 0.2 17.9 15.1 18.2 27.6 0.6 23.6 0.7 47.3 0.1 70.9-0.6 20.9 9.1 29.4 29.4 28.9 22.1-0.6 44.3-0.8 66.4 0.2 25.1 1.2 32.7 9.6 33.2 34.3 0.5 16.3 0.2 32.5 0.1 48.8z m-128.9-1.2c0 47.8 0 47.8 38.2 47.8 50.7 0 54.1-2.8 54.1-43.5 0-47.3-1.8-49-53.1-49-39 0-39.2 0.2-39.2 44.7z m-37.7 1.7c0-46-0.3-46.4-32.2-46.4-55.3 0-59.2 2.8-59.2 43.1 0 45.9 3 49.4 43.3 49.4 48.1-0.1 48.1-0.1 48.1-46.1zM203.1 418.3c0-39.1-0.3-78.2 0.1-117.3 0.3-26.8 5.7-32.1 32.9-32.2 55.3-0.3 110.7-0.1 166-0.1 3.7 0 8.3-1 10.9 0.8 7 4.9 13.2 11.1 19.7 16.8-6.5 6.5-12 15.6-19.9 18.8-8.3 3.4-18.9 1.2-28.5 1.2-39.1 0.1-78.2 0.5-117.3-0.2-19.1-0.3-27.1 7.8-26.3 26.4 0.6 13.3 0.5 26.6 0 39.8-0.7 18.5 6.9 26.9 26.2 26.6 42.8-0.7 85.6-0.3 128.4-0.2 7.4 0 15.6-1.2 21.8 1.6 6.3 2.8 14.6 9.9 14.8 15.3 0.2 5.7-7.1 14-13.1 17-6.7 3.4-15.8 2.8-23.8 2.9-42.8 0.2-85.6 0.4-128.4 0-17.5-0.2-26 6.8-25.8 24.7 0.8 75.8-8.9 66.8 64.9 67 33.2 0.1 66.4-0.1 99.6 0.1 13 0.1 26.9 1.2 27.2 18.6 0.3 18.5-14.8 17.8-27.1 17.8-57.5 0.4-115.1-0.3-172.6 0.4-22.2 0.3-30.1-9.7-29.7-30.9 0.5-38.2 0-76.6 0-114.9zM526.4 469.1c0-23.6-1.1-47.3 0.6-70.8 0.6-8 8-15.6 12.3-23.3 6 3.9 13.2 6.8 17.8 12 8.6 9.6 16.9 11.4 26.4 2.4 22.6-21.3 48.7-19.4 74.3-8.8 25.4 10.6 34.3 33.6 35 59.4 0.9 33.2 0.5 66.4 0.3 99.6-0.1 12.7-3.2 24-19.6 23.6-15.5-0.4-17.3-12-17.5-23.3-0.6-33.9-0.1-67.9-0.7-101.8-0.4-22-13.9-35.7-33.5-42-18.7-6-37.9-4-48.8 14.8-5.9 10.2-8.7 23.4-9.2 35.4-1.3 28.7-0.1 57.5-0.6 86.3-0.3 13.5 2.7 30.8-19 30.3-19.7-0.5-17.6-16.4-17.8-29.5-0.3-21.5-0.1-42.9 0-64.3-0.1 0-0.1 0 0 0z" p-id="3464"></path></svg>