<?xml version="1.0" standalone="no"?><!DOCTYPE svg PUBLIC "-//W3C//DTD SVG 1.1//EN" "http://www.w3.org/Graphics/SVG/1.1/DTD/svg11.dtd"><svg t="1712581461931" class="icon" viewBox="0 0 1024 1024" version="1.1" xmlns="http://www.w3.org/2000/svg" p-id="5132" xmlns:xlink="http://www.w3.org/1999/xlink" width="200" height="200"><path d="M848 648a24 24 0 0 1 23.776 20.736l0.224 3.264v39.968l56 0.032a56 56 0 0 1 55.808 51.392l0.192 4.608v32a56 56 0 0 1-51.392 55.808L928 856l-56-0.032V896a24 24 0 0 1-47.776 3.264L824 896v-40.032L768 856a56 56 0 0 1-55.808-51.392L712 800v-32a56 56 0 0 1 51.392-55.808L768 712l56-0.032V672a24 24 0 0 1 24-24z m-98.272-544c74.816 0 134.752 64.768 138.112 144.896L888 256v263.84a24 24 0 0 1-47.776 3.232l-0.224-3.232V256c0-55.936-38.176-100.704-85.056-103.84l-5.216-0.16H178.24c-47.456 0-87.328 42.752-90.112 97.824L88 256v512c0 55.936 38.176 100.704 85.056 103.84l5.216 0.16h434.112a24 24 0 0 1 3.264 47.776l-3.264 0.224H178.272c-74.816 0-134.752-64.768-138.112-144.896L40 768V256c0-80.992 57.824-148.064 131.712-151.84l6.56-0.16H749.76z m74.272 655.968L768 760a8 8 0 0 0-7.776 6.176L760 768v32a8 8 0 0 0 6.176 7.776l1.824 0.224 56-0.032v-48z m104 0.032l-56-0.032v48l56 0.032a8 8 0 0 0 7.776-6.176L936 800v-32a8 8 0 0 0-8-8z m-512-400a24 24 0 0 1 3.264 47.776L416 408H280v69.28h140.736a24 24 0 0 1 3.264 47.776l-3.264 0.224H280v74.176l136 0.032a24 24 0 0 1 23.776 20.736l0.224 3.264a24 24 0 0 1-20.736 23.776l-3.264 0.224H232V360H416z m112.768 6.784l2.208 2.496 139.136 179.392V384a24 24 0 0 1 20.736-23.776l3.264-0.224a24 24 0 0 1 23.776 20.736l0.224 3.264v234.784c0 21.728-26.112 31.744-40.768 17.216l-2.208-2.528-139.168-179.424 0.032 169.312a24 24 0 0 1-20.736 23.776L512 647.36a24 24 0 0 1-23.776-20.736l-0.224-3.264V384c0-21.728 26.112-31.744 40.768-17.216z" fill="#B5B9BE" p-id="5133"></path></svg>