<?xml version="1.0" standalone="no"?><!DOCTYPE svg PUBLIC "-//W3C//DTD SVG 1.1//EN" "http://www.w3.org/Graphics/SVG/1.1/DTD/svg11.dtd"><svg t="1714619813168" class="icon" viewBox="0 0 1024 1024" version="1.1" xmlns="http://www.w3.org/2000/svg" p-id="17674" xmlns:xlink="http://www.w3.org/1999/xlink" width="200" height="200"><path d="M512 896c-179.2 0-332.8-122.88-373.76-294.4h104.96v-76.8h-179.2c-7.68 0-12.8 7.68-12.8 15.36l2.56 28.16C81.92 798.72 279.04 972.8 512 972.8s430.08-174.08 458.24-404.48l-76.8-10.24C870.4 750.08 706.56 896 512 896zM970.24 455.68C942.08 225.28 744.96 51.2 512 51.2S81.92 225.28 53.76 455.68l76.8 10.24C153.6 273.92 317.44 128 512 128c179.2 0 332.8 122.88 373.76 294.4h-104.96v76.8h179.2c7.68 0 12.8-7.68 12.8-15.36l-2.56-28.16z" p-id="17675"></path><path d="M430.08 647.68l81.92-81.92 81.92 81.92 53.76-53.76-81.92-81.92 81.92-81.92-53.76-53.76-81.92 81.92-81.92-81.92-53.76 53.76 81.92 81.92-81.92 81.92z" p-id="17676"></path></svg>