<?xml version="1.0" standalone="no"?><!DOCTYPE svg PUBLIC "-//W3C//DTD SVG 1.1//EN" "http://www.w3.org/Graphics/SVG/1.1/DTD/svg11.dtd"><svg t="1714200996813" class="icon" viewBox="0 0 1024 1024" version="1.1" xmlns="http://www.w3.org/2000/svg" p-id="11724" xmlns:xlink="http://www.w3.org/1999/xlink" width="200" height="200"><path d="M423.807951 72.703991L388.927956 31.167996a18.111998 18.111998 0 0 0-12.223999-6.399999 18.431998 18.431998 0 0 0-13.247998 4.159999l-3.264 2.752-13.183998-15.743998a45.183994 45.183994 0 0 0-63.231992-5.567999l-3.264 2.815999a45.183994 45.183994 0 0 0-5.631999 63.231992l13.183998 15.679998-0.768 0.704a18.047998 18.047998 0 0 0-2.048 25.599997l34.751996 41.599995a18.047998 18.047998 0 0 0 25.599997 2.24l76.22399-63.999992a18.111998 18.111998 0 0 0 1.984-25.535997zM289.087968 64.575992A27.391997 27.391997 0 0 1 282.687969 44.799994a27.135997 27.135997 0 0 1 9.535999-18.431997l3.263999-2.368a27.071997 27.071997 0 0 1 38.399995 3.264l12.799999 15.679998-44.415995 37.247995z m44.799994 83.583989l-35.007995-41.663994 3.839999-3.2 65.919992-55.423993 6.399999-5.247999 34.879996 41.535994zM888.511893 590.271926H601.855929l-98.879988 86.015989V870.399891h442.815945V638.20792zM601.855929 572.159928h286.655964a17.727998 17.727998 0 0 1 11.519999 4.288l63.999992 53.375993V870.399891a18.047998 18.047998 0 0 1-18.047998 18.047998H502.975941A18.111998 18.111998 0 0 1 484.927944 870.399891v-202.367975L589.88793 576.575928a17.919998 17.919998 0 0 1 11.903999-4.416z" fill="#6C7C9D" p-id="11725"></path><path d="M557.183934 807.103899h189.823977v-153.599981h-108.799987l-81.343989 76.799991zM638.527924 635.455921h108.799987a18.047998 18.047998 0 0 1 18.047997 18.047997v153.599981a18.111998 18.111998 0 0 1-18.047997 18.111998H557.183934a18.111998 18.111998 0 0 1-18.047997-18.111998V722.55991l86.655989-82.17599a17.855998 17.855998 0 0 1 12.799998-4.927999zM810.239903 635.455921h72.319991a8.767999 8.767999 0 0 1 6.399999 2.623999 8.831999 8.831999 0 0 1 2.688 6.399999 9.087999 9.087999 0 0 1-9.023999 9.023999h-72.319991a9.151999 9.151999 0 0 1-6.399999-2.623999 9.279999 9.279999 0 0 1-2.624-6.4 9.023999 9.023999 0 0 1 2.624-6.399999 8.895999 8.895999 0 0 1 6.399999-2.623999z m0 54.207993h72.319991a9.023999 9.023999 0 0 1 0 18.047998h-72.319991a9.151999 9.151999 0 0 1-6.399999-2.624 9.279999 9.279999 0 0 1-2.624-6.399999 8.959999 8.959999 0 0 1 9.023999-9.023999z m0 54.207993h72.319991a9.023999 9.023999 0 0 1 0 18.047998h-72.319991a8.959999 8.959999 0 0 1-9.023999-9.023999 9.279999 9.279999 0 0 1 2.624-6.399999 9.151999 9.151999 0 0 1 6.399999-2.624z m0 54.207993h72.319991a9.087999 9.087999 0 0 1 9.023999 9.023999 8.831999 8.831999 0 0 1-2.688 6.399999 8.767999 8.767999 0 0 1-6.399999 2.624h-72.319991a8.895999 8.895999 0 0 1-6.399999-2.624 9.023999 9.023999 0 0 1-2.624-6.399999 9.279999 9.279999 0 0 1 2.624-6.399999 9.151999 9.151999 0 0 1 6.399999-2.624zM341.311961 140.799982l313.151961 443.903945 14.719998-10.367999-313.15196-443.711944z m49.535994-39.167995l436.799946 483.00794 13.375998-12.095999L404.287954 89.599989zM466.815946 391.423951H141.503986A18.111998 18.111998 0 0 0 123.455989 409.599949v117.375985a18.111998 18.111998 0 0 0 18.047997 18.111998h325.31196a18.111998 18.111998 0 0 0 18.111998-18.111998V409.599949a18.111998 18.111998 0 0 0-18.111998-18.175998z m0 135.551983H141.503986V409.599949h325.31196zM322.239964 329.727959V57.087993a8.959999 8.959999 0 0 0-9.023999-9.023999 9.279999 9.279999 0 0 0-6.399999 2.624 9.151999 9.151999 0 0 0-2.624 6.399999v272.639966a26.879997 26.879997 0 0 1 18.047998 0zM313.215965 48.063994z" fill="#6C7C9D" p-id="11726"></path><path d="M286.143968 354.559956l-144.639982 38.783995a9.343999 9.343999 0 0 0-5.631999 4.095999 8.959999 8.959999 0 0 0 9.983999 13.311999l145.791982-39.039995a26.687997 26.687997 0 0 1-3.456-6.016 26.239997 26.239997 0 0 1-2.048-11.135998zM465.599946 393.343951L340.287962 359.679955a27.199997 27.199997 0 0 1-9.151999 16.191998l130.175983 34.879996a9.023999 9.023999 0 1 0 4.608-17.407998z" fill="#6C7C9D" p-id="11727"></path><path d="M339.455962 362.111955c0-0.768 0.384-1.536 0.512-2.368v-2.048-2.367999a27.199997 27.199997 0 0 0-16.767998-25.023997 27.647997 27.647997 0 0 0-10.303999-2.048H305.855966l-2.048 0.64-2.496 1.024h-0.511999a30.271996 30.271996 0 0 0-4.544 2.879999l-0.576 0.384c-0.704 0.576-1.344 1.216-1.984 1.856a22.079997 22.079997 0 0 0-1.663999 1.792l-0.384 0.512-1.088 1.408-0.384 0.576-1.088 1.791999a23.871997 23.871997 0 0 0-1.024 2.24 21.887997 21.887997 0 0 0-0.832 2.176c0 0.768-0.448 1.536-0.64 2.304a33.983996 33.983996 0 0 0-0.576 5.055999 20.671997 20.671997 0 0 0 0 2.816c0 0.896 0 1.856 0.32 2.751999a14.207998 14.207998 0 0 0 0.576 2.368 1.856 1.856 0 0 0 0 0.576 19.199998 19.199998 0 0 0 0.896 2.496 26.175997 26.175997 0 0 0 1.472 3.007999 26.751997 26.751997 0 0 0 6.399999 7.231999 28.351996 28.351996 0 0 0 5.056 3.264l2.623999 1.152h0.384l2.56 0.832 2.752 0.448h0.575999a21.759997 21.759997 0 0 0 2.88 0h6.335999l1.28-0.32 1.28-0.448 1.024-0.384 1.408-0.576 0.768-0.384 1.471999-0.768 0.576-0.384 1.536-0.96h0.32a27.391997 27.391997 0 0 0 9.535999-12.799998 22.911997 22.911997 0 0 0 1.408-0.704z m-17.343998-5.12v0.512a4.799999 4.799999 0 0 1 0 1.024s0 0.448-0.32 0.64l-0.384 0.704-0.448 0.768v0.384a9.215999 9.215999 0 0 1-4.479999 2.88 7.871999 7.871999 0 0 1-2.496 0.447999 9.087999 9.087999 0 0 1-9.023999-9.087998 8.575999 8.575999 0 0 1 1.408-4.736 8.767999 8.767999 0 0 1 1.088-1.472 8.895999 8.895999 0 0 1 2.879999-1.983999l1.472-0.512a8.703999 8.703999 0 0 1 1.856 0 6.399999 6.399999 0 0 1 1.6 0h0.448l1.216 0.384h0.575999l0.896 0.512 0.64 0.448h0.384a12.799998 12.799998 0 0 1 2.048 2.431999 13.311998 13.311998 0 0 1 0.832 1.92 12.223998 12.223998 0 0 1 0.384 2.112 15.679998 15.679998 0 0 1-0.576 2.623999zM313.215965 382.399952zM376.447957 707.711912H51.135998A18.111998 18.111998 0 0 0 33.088 725.759909v117.503986a18.111998 18.111998 0 0 0 18.047998 18.111997h325.311959a18.111998 18.111998 0 0 0 18.111998-18.111997V725.759909a18.111998 18.111998 0 0 0-18.111998-18.047997z m0 135.551983H51.135998V725.759909h325.311959zM376.447957 870.399891H51.135998a17.919998 17.919998 0 0 0-12.799999 5.248 18.111998 18.111998 0 0 0-5.311999 12.799998v117.503985A18.047998 18.047998 0 0 0 51.135998 1023.999872h325.311959a18.111998 18.111998 0 0 0 18.111998-18.047998v-117.503985a18.111998 18.111998 0 0 0-18.111998-18.047998z m0 135.551983H51.135998v-117.503985h325.311959zM985.663881 875.647891a18.047998 18.047998 0 0 0-12.799998-5.248H457.791947a17.919998 17.919998 0 0 0-12.799998 5.248 18.111998 18.111998 0 0 0-5.312 12.799998v72.319991a18.111998 18.111998 0 0 0 18.047998 18.047998h45.183994v31.615996a13.567998 13.567998 0 0 0 13.631999 13.567998h90.367988a13.567998 13.567998 0 0 0 9.599999-3.968 13.823998 13.823998 0 0 0 3.968-9.599998v-31.615996h207.807974v31.615996a13.823998 13.823998 0 0 0 3.967999 9.599998 13.567998 13.567998 0 0 0 9.599999 3.968h90.367989a13.567998 13.567998 0 0 0 13.567998-13.567998v-31.615996h27.135997a18.111998 18.111998 0 0 0 18.047997-18.047998v-72.319991a18.111998 18.111998 0 0 0-5.311999-12.799998zM602.687929 1005.951874H521.087939v-27.135996H602.687929z m325.311959 0h-81.27999v-27.135996h81.27999z m45.247994-45.183994H457.791947v-72.319991h515.135936zM177.663982 445.631944h216.895973a9.087999 9.087999 0 0 1 0 18.111998H177.663982a9.087999 9.087999 0 0 1 0-18.111998z" fill="#6C7C9D" p-id="11728"></path><path d="M87.295993 761.919905h216.895973a9.087999 9.087999 0 0 1 0 18.111997H87.295993a9.087999 9.087999 0 0 1 0-18.111997z m0 162.687979h216.895973a9.023999 9.023999 0 0 1 9.023999 9.023999 8.959999 8.959999 0 0 1-9.023999 9.023999H87.295993a9.023999 9.023999 0 1 1 0-18.047998z m90.367989-442.815944h90.367989a9.087999 9.087999 0 0 1 0 18.111998H177.663982a9.087999 9.087999 0 0 1-9.023999-9.087999 8.959999 8.959999 0 0 1 9.023999-9.023999zM87.295993 798.0799h90.367989a9.023999 9.023999 0 1 1 0 18.047998H87.295993a9.023999 9.023999 0 0 1-9.023999-9.023999 8.959999 8.959999 0 0 1 9.023999-9.023999z m0 162.68798h90.367989a9.023999 9.023999 0 1 1 0 18.047998H87.295993a9.023999 9.023999 0 1 1 0-18.047998z" fill="#6C7C9D" p-id="11729"></path></svg>