<?xml version="1.0" standalone="no"?><!DOCTYPE svg PUBLIC "-//W3C//DTD SVG 1.1//EN" "http://www.w3.org/Graphics/SVG/1.1/DTD/svg11.dtd"><svg t="1714619695188" class="icon" viewBox="0 0 1024 1024" version="1.1" xmlns="http://www.w3.org/2000/svg" p-id="14760" xmlns:xlink="http://www.w3.org/1999/xlink" width="200" height="200"><path d="M879.55472126 351.42076586a110.56769052 110.56769052 0 0 0-27.71724114-53.62683693 196.12960986 196.12960986 0 0 0-41.87713635-38.86439239 285.30681989 285.30681989 0 0 0-38.26184437-20.48665716l-41.87713635-18.37773522a271.14692466 271.14692466 0 0 1-52.12046429-32.83890574 268.13418199 268.13418199 0 0 1-55.13320824-50.61409295Q602.38230866 110.70255099 588.22241343 90.21589382a160.88050945 160.88050945 0 0 0-27.11469311-30.12743579 41.57586234 41.57586234 0 0 0-34.34527708-8.43568258 58.14595222 58.14595222 0 0 0-39.76821571 21.39048048 72.60712144 72.60712144 0 0 0-15.06371724 47.30007367v301.27436174l-238.30802021-238.3080202a24.10194914 24.10194914 0 1 0-34.04400308 34.04400307l271.14692597 271.14692595v174.43785537a324.17121227 324.17121227 0 0 0-46.09497765-12.9547979A285.60809519 285.60809519 0 0 0 270.98051111 662.63718022a206.07166379 206.07166379 0 0 0-79.53643139 52.7230136 116.89445245 116.89445245 0 0 0-37.35802105 81.04280275 131.35562169 131.35562169 0 0 0 26.5121438 79.53643141 195.82833456 195.82833456 0 0 0 73.20966947 60.25487285 207.27676111 207.27676111 0 0 0 105.7473012 20.78793118 256.08320741 256.08320741 0 0 0 96.40779529-21.39048048 195.22578654 195.22578654 0 0 0 62.06251822-44.28733101 140.09257828 140.09257828 0 0 0 31.93508242-55.13320825 168.11109342 168.11109342 0 0 0 6.62803595-53.02428761v-158.16903949-49.10772033l247.04497681 247.04497553a24.10194914 24.10194914 0 0 0 34.04400307-34.04400178l-280.78770459-280.78770588v-5.42293733-256.68575672a22.29430251 22.29430251 0 0 1 12.05097459-21.99302851q12.05097457-6.02548665 33.74272776 15.06371854a583.26716365 583.26716365 0 0 0 57.2421289 51.21664097 180.76461731 180.76461731 0 0 0 78.9338821 36.15292373 128.64415173 128.64415173 0 0 1 63.26761683 26.21086979 90.38230866 90.38230866 0 0 1 25.30704647 57.24212889 90.38230866 90.38230866 0 0 0 8.43568131 32.83890445 18.37773652 18.37773652 0 0 0 12.35224858 9.94205393q6.92930996 0 16.87136517-13.55734592a98.51671594 98.51671594 0 0 0 14.46116924-37.35802103 137.68238364 137.68238364 0 0 0 0-50.31281764z" p-id="14761"></path></svg>