<?xml version="1.0" standalone="no"?><!DOCTYPE svg PUBLIC "-//W3C//DTD SVG 1.1//EN" "http://www.w3.org/Graphics/SVG/1.1/DTD/svg11.dtd"><svg t="1714981038810" class="icon" viewBox="0 0 1024 1024" version="1.1" xmlns="http://www.w3.org/2000/svg" p-id="10537" xmlns:xlink="http://www.w3.org/1999/xlink" width="200" height="200"><path d="M832 0a192 192 0 0 1 192 192v640a192 192 0 0 1-192 192H192a192 192 0 0 1-192-192V192a192 192 0 0 1 192-192h640z m0 89.6H192A102.4 102.4 0 0 0 89.6 192v640A102.4 102.4 0 0 0 192 934.4h640a102.4 102.4 0 0 0 102.4-102.4V192A102.4 102.4 0 0 0 832 89.6zM236.8 576v192a19.2 19.2 0 0 0 19.2 19.2h192v89.6H256A108.8 108.8 0 0 1 147.2 768V576h89.6z m640 0v192a108.8 108.8 0 0 1-108.8 108.8H576v-89.6h192a19.2 19.2 0 0 0 19.2-19.2V576h89.6zM448 147.2v89.6H256a19.2 19.2 0 0 0-19.2 19.2v192H147.2V256A108.8 108.8 0 0 1 256 147.2h192z m320 0A108.8 108.8 0 0 1 876.8 256v192h-89.6V256a19.2 19.2 0 0 0-19.2-19.2H576V147.2z" fill="#566173" p-id="10538"></path></svg>